# Exported from Wings 3D 2.1.5
mtllib key2.mtl
o Cube1
#63 vertices, 122 faces
v -0.82773333 -0.82773333 -0.82773333
v -0.82773333 -0.82773333 0.82773333
v -0.82773333 0.82773333 -0.82773333
v -0.82773333 0.82773333 0.82773333
v 0.87080000 -0.86340976 -0.86340976
v 0.87080000 -0.86340976 0.86340976
v 0.87080000 0.86340976 -0.86340976
v 0.87080000 0.86340976 0.86340976
v 1.01340322 -0.67895120 0.67895120
v 1.01340322 -0.67895120 -0.67895120
v 1.01340322 0.67895120 -0.67895120
v 1.01340322 0.67895120 0.67895120
v 1.19407693 -0.66652919 0.66652919
v 1.19407693 -0.66652919 -0.66652919
v 1.19407693 0.66652919 -0.66652919
v 1.19407693 0.66652919 0.66652919
v 1.21828274 -0.54093742 0.54093742
v 1.21828274 -0.54093742 -0.54093742
v 1.21828274 0.54093742 -0.54093742
v 1.21828274 0.54093742 0.54093742
v 1.36390036 -0.53107927 0.53107927
v 1.36390036 -0.53107927 -0.53107927
v 1.36390036 0.53107927 -0.53107927
v 1.36390036 0.53107927 0.53107927
v 1.41603288 -0.41061413 0.41061413
v 1.41603288 -0.41061413 -0.41061413
v 1.41603288 0.41061413 -0.41061413
v 1.41603288 0.41061413 0.41061413
v 2.00176197 -0.39873156 0.39873156
v 2.00176197 -0.39873156 -0.39873156
v 2.00176197 0.39873156 -0.39873156
v 2.00176197 0.39873156 0.39873156
v 2.81344898 -0.21728037 0.22261065
v 2.81344898 -0.21728037 -0.22261065
v 2.73957889 0.22794093 -0.22261065
v 2.73957889 0.22794093 0.22261065
v 7.70286730 -0.19352264 0.20489390
v 7.70286730 -0.19352264 -0.20489390
v 7.95936068 0.29437770 -0.22354987
v 7.95936068 0.25511730 0.22354987
v 5.30375377 0.27996852 0.22354987
v 5.30375377 0.25881507 -0.22354987
v 8.10094502 0.31836535 0.0000000e+0
v 6.68388187 0.29830956 0.23474346
v 6.68388187 0.31279512 -0.23474346
v 5.33083947 0.29956209 0.0000000e+0
v 6.74544028 0.33071695 0.0000000e+0
v 6.62232346 0.55790425 -0.22621501
v 5.43918227 0.55790425 -0.22621501
v 5.43918227 0.55790425 -2.1321111e-2
v 6.62232346 0.55790425 -2.1321111e-2
v 5.43918227 0.85715244 0.22621501
v 6.62232346 0.85715244 0.22621501
v 6.62232346 0.85715244 2.1321111e-2
v 5.43918227 0.85715244 2.1321111e-2
v 8.05169829 1.24196447 -2.1321111e-2
v 8.05169829 1.24196447 -0.22621501
v 6.86855710 1.24196447 -0.22621501
v 6.86855710 1.24196447 -2.1321111e-2
v 8.05169829 0.68656566 0.22621501
v 8.05169829 0.68656566 2.1321111e-2
v 6.86855710 0.68656566 2.1321111e-2
v 6.86855710 0.68656566 0.22621501
vn -0.59326433 -0.56922642 -0.56922642
vn -0.59326433 -0.56922642 0.56922642
vn -0.59326433 0.56922642 -0.56922642
vn -0.59326433 0.56922642 0.56922642
vn 0.55998542 -0.58583971 -0.58583971
vn 0.55998542 -0.58583971 0.58583971
vn 0.55998542 0.58583971 -0.58583971
vn 0.55998542 0.58583971 0.58583971
vn 0.60281986 -0.56418446 0.56418446
vn 0.60281986 -0.56418446 -0.56418446
vn 0.60281986 0.56418446 -0.56418446
vn 0.60281986 0.56418446 0.56418446
vn 0.78128742 -0.44135584 0.44135584
vn 0.78128742 -0.44135584 -0.44135584
vn 0.78128742 0.44135584 -0.44135584
vn 0.78128742 0.44135584 0.44135584
vn 0.78096525 -0.44164085 0.44164085
vn 0.78096525 -0.44164085 -0.44164085
vn 0.78096525 0.44164085 -0.44164085
vn 0.78096525 0.44164085 0.44164085
vn 0.70673441 -0.50026317 0.50026317
vn 0.70673441 -0.50026317 -0.50026317
vn 0.70673441 0.50026317 -0.50026317
vn 0.70673441 0.50026317 0.50026317
vn 0.68860319 -0.51275026 0.51275026
vn 0.68860319 -0.51275026 -0.51275026
vn 0.68860319 0.51275026 -0.51275026
vn 0.68860319 0.51275026 0.51275026
vn 0.16609398 -0.69704732 0.69752263
vn 0.16906012 -0.69399505 -0.69984966
vn 0.17577163 0.69637410 -0.69582142
vn 0.17290408 0.70008045 0.69281422
vn 0.15984666 -0.69674141 0.69928567
vn 0.11997069 -0.54647331 -0.82883892
vn 0.20427265 0.69584898 -0.68852515
vn 0.12044217 0.83684876 0.53402044
vn 0.24874685 -0.46459020 0.84987114
vn 0.37750560 -0.66102368 -0.64848841
vn 0.55348347 -0.42016748 -0.71910732
vn 0.67366933 -0.49797847 0.54606509
vn -0.38193676 0.39310478 0.83641673
vn -0.31997892 0.56259153 -0.76230194
vn 0.97643381 -0.21381301 -2.9342892e-2
vn 1.7413499e-2 0.15990776 0.98697836
vn -1.7910225e-2 0.15412363 -0.98788923
vn -0.90410383 0.42684615 -1.9965577e-2
vn -6.6006901e-2 0.99683289 4.4353985e-2
vn 0.51305267 0.67623187 -0.52866569
vn -0.47132310 0.72442978 -0.50304675
vn -0.46100074 0.73434973 0.49820556
vn 0.47948406 0.75044161 0.45489826
vn -0.53573131 0.66497777 0.52038114
vn 0.55112431 0.62362656 0.55439328
vn 0.54758710 0.67929420 -0.48857729
vn -0.52678483 0.65949901 -0.53624509
vn 0.56218160 0.60594881 0.56283025
vn 0.50034445 0.53319370 -0.68217293
vn -0.53099992 0.65189311 -0.54136352
vn -0.51089064 0.62546164 0.58973595
vn 0.50489247 0.53439290 0.67787007
vn 0.53784918 0.64594552 -0.54173116
vn -0.45043238 0.71016170 -0.54109244
vn -0.45600015 0.73294338 0.50483449
g Cube1_default
usemtl default
s 1
f 1//1 5//5 2//2
f 2//2 3//3 1//1
f 2//2 5//5 6//6
f 2//2 8//8 4//4
f 3//3 5//5 1//1
f 3//3 8//8 7//7
f 4//4 3//3 2//2
f 4//4 8//8 3//3
f 5//5 9//9 6//6
f 6//6 8//8 2//2
f 6//6 9//9 8//8
f 7//7 5//5 3//3
f 7//7 11//11 5//5
f 8//8 11//11 7//7
f 9//9 5//5 10//10
f 9//9 16//16 12//12
f 10//10 5//5 11//11
f 10//10 14//14 9//9
f 11//11 8//8 12//12
f 11//11 14//14 10//10
f 12//12 8//8 9//9
f 12//12 16//16 11//11
f 13//13 9//9 14//14
f 13//13 16//16 9//9
f 13//13 17//17 16//16
f 14//14 11//11 15//15
f 14//14 17//17 13//13
f 15//15 11//11 16//16
f 15//15 19//19 14//14
f 16//16 19//19 15//15
f 17//17 14//14 18//18
f 17//17 24//24 20//20
f 18//18 14//14 19//19
f 18//18 22//22 17//17
f 19//19 16//16 20//20
f 19//19 22//22 18//18
f 20//20 16//16 17//17
f 20//20 24//24 19//19
f 21//21 17//17 22//22
f 21//21 24//24 17//17
f 21//21 25//25 24//24
f 22//22 19//19 23//23
f 22//22 25//25 21//21
f 23//23 19//19 24//24
f 23//23 27//27 22//22
f 24//24 27//27 23//23
f 25//25 22//22 26//26
f 25//25 32//32 28//28
f 26//26 22//22 27//27
f 26//26 30//30 25//25
f 27//27 24//24 28//28
f 27//27 30//30 26//26
f 28//28 24//24 25//25
f 28//28 32//32 27//27
f 29//29 25//25 30//30
f 29//29 32//32 25//25
f 29//29 33//33 32//32
f 30//30 27//27 31//31
f 30//30 33//33 29//29
f 31//31 27//27 32//32
f 31//31 35//35 30//30
f 32//32 35//35 31//31
f 33//33 30//30 34//34
f 33//33 41//41 36//36
f 34//34 30//30 35//35
f 34//34 38//38 33//33
f 34//34 42//42 38//38
f 35//35 32//32 36//36
f 35//35 42//42 34//34
f 36//36 32//32 33//33
f 36//36 42//42 35//35
f 37//37 33//33 38//38
f 37//37 41//41 33//33
f 38//38 40//40 37//37
f 38//38 45//45 39//39
f 39//39 40//40 38//38
f 39//39 57//57 43//43
f 40//40 39//39 43//43
f 40//40 44//44 37//37
f 40//40 60//60 44//44
f 41//41 37//37 44//44
f 41//41 42//42 36//36
f 41//41 52//52 46//46
f 42//42 49//49 45//45
f 43//43 59//59 47//47
f 43//43 60//60 40//40
f 44//44 52//52 41//41
f 44//44 62//62 47//47
f 45//45 38//38 42//42
f 45//45 51//51 47//47
f 45//45 57//57 39//39
f 46//46 42//42 41//41
f 46//46 49//49 42//42
f 46//46 54//54 47//47
f 47//47 51//51 46//46
f 47//47 54//54 44//44
f 47//47 59//59 45//45
f 47//47 62//62 43//43
f 48//48 45//45 49//49
f 48//48 51//51 45//45
f 49//49 46//46 50//50
f 49//49 51//51 48//48
f 50//50 46//46 51//51
f 50//50 51//51 49//49
f 52//52 44//44 53//53
f 53//53 44//44 54//54
f 53//53 54//54 52//52
f 54//54 46//46 55//55
f 55//55 46//46 52//52
f 55//55 52//52 54//54
f 56//56 43//43 57//57
f 56//56 59//59 43//43
f 57//57 45//45 58//58
f 57//57 59//59 56//56
f 58//58 45//45 59//59
f 58//58 59//59 57//57
f 60//60 43//43 61//61
f 61//61 43//43 62//62
f 61//61 62//62 60//60
f 62//62 44//44 63//63
f 63//63 44//44 60//60
f 63//63 60//60 62//62
